<svg width="90" height="90" viewBox="0 0 90 90" fill="none" xmlns="http://www.w3.org/2000/svg">
<rect x="0.990178" y="0.990178" width="87.1357" height="87.1357" rx="43.5678" stroke="#17B8FF" stroke-width="1.98036"/>
<path d="M54.2801 23.4414H34.5419C27.5645 23.4414 24.0733 23.4414 21.907 25.6101C19.7383 27.7764 19.7383 31.2676 19.7383 38.2451V45.6469C19.7383 52.6243 19.7383 56.1155 21.907 58.2818C24.0733 60.4505 27.5645 60.4505 34.5419 60.4505H54.2801C61.2576 60.4505 64.7488 60.4505 66.915 58.2818C69.0838 56.1155 69.0838 52.6243 69.0838 45.6469V38.2451C69.0838 31.2676 69.0838 27.7764 66.915 25.6101C64.7488 23.4414 61.2576 23.4414 54.2801 23.4414Z" stroke="white" stroke-width="3.70091" stroke-linecap="round" stroke-linejoin="round"/>
<path d="M27.1396 60.4501V65.3846M61.6815 60.4501V65.3846M61.8049 33.315H61.6815M61.8049 43.1841H61.6815M46.8778 30.8428H34.5415C31.0527 30.8428 29.3084 30.8428 28.2252 31.9284C27.1396 33.009 27.1396 34.7534 27.1396 38.2446V45.6464C27.1396 49.1351 27.1396 50.8795 28.2252 51.9626C29.3084 53.0482 31.0527 53.0482 34.5415 53.0482H46.8778C50.3666 53.0482 52.1109 53.0482 53.1941 51.9626C54.2797 50.8795 54.2797 49.1351 54.2797 45.6464V38.2446C54.2797 34.7559 54.2797 33.0115 53.1941 31.9284C52.1109 30.8428 50.3666 30.8428 46.8778 30.8428ZM61.9282 33.315C61.9282 33.3474 61.9218 33.3795 61.9094 33.4094C61.897 33.4393 61.8789 33.4665 61.856 33.4894C61.833 33.5124 61.8058 33.5305 61.7759 33.5429C61.746 33.5553 61.7139 33.5617 61.6815 33.5617C61.6491 33.5617 61.617 33.5553 61.5871 33.5429C61.5571 33.5305 61.5299 33.5124 61.507 33.4894C61.4841 33.4665 61.4659 33.4393 61.4535 33.4094C61.4411 33.3795 61.4348 33.3474 61.4348 33.315C61.4348 33.2495 61.4608 33.1868 61.507 33.1405C61.5533 33.0942 61.6161 33.0683 61.6815 33.0683C61.7469 33.0683 61.8097 33.0942 61.856 33.1405C61.9022 33.1868 61.9282 33.2495 61.9282 33.315ZM61.9282 43.1841C61.9282 43.2165 61.9218 43.2486 61.9094 43.2785C61.897 43.3084 61.8789 43.3356 61.856 43.3585C61.833 43.3815 61.8058 43.3996 61.7759 43.412C61.746 43.4244 61.7139 43.4308 61.6815 43.4308C61.6491 43.4308 61.617 43.4244 61.5871 43.412C61.5571 43.3996 61.5299 43.3815 61.507 43.3585C61.4841 43.3356 61.4659 43.3084 61.4535 43.2785C61.4411 43.2486 61.4348 43.2165 61.4348 43.1841C61.4348 43.1186 61.4608 43.0559 61.507 43.0096C61.5533 42.9633 61.6161 42.9374 61.6815 42.9374C61.7469 42.9374 61.8097 42.9633 61.856 43.0096C61.9022 43.0559 61.9282 43.1186 61.9282 43.1841Z" stroke="white" stroke-width="3.70091" stroke-linecap="round" stroke-linejoin="round"/>
</svg>
