<svg width="90" height="90" viewBox="0 0 90 90" fill="none" xmlns="http://www.w3.org/2000/svg">
<rect x="0.990178" y="0.990178" width="87.1357" height="87.1357" rx="43.5678" stroke="#17B8FF" stroke-width="1.98036"/>
<path d="M61.0641 51.8127C61.0641 62.033 54.6303 68.4668 44.41 68.4668C34.1897 68.4668 27.7559 62.033 27.7559 51.8127C27.7559 40.8453 39.6948 26.0393 43.3564 21.7567C43.4866 21.6045 43.6483 21.4824 43.8303 21.3986C44.0123 21.3148 44.2102 21.2715 44.4105 21.2715C44.6109 21.2715 44.8088 21.3148 44.9908 21.3986C45.1728 21.4824 45.3344 21.6045 45.4647 21.7567C49.1252 26.0393 61.0641 40.8453 61.0641 51.8127Z" stroke="white" stroke-width="3.70091" stroke-miterlimit="10"/>
<path d="M54.5868 52.7383C54.5868 54.9468 53.7095 57.0648 52.1479 58.6264C50.5863 60.188 48.4682 61.0653 46.2598 61.0653" stroke="white" stroke-width="3.70091" stroke-linecap="round" stroke-linejoin="round"/>
</svg>
