<svg width="90" height="90" viewBox="0 0 90 90" fill="none" xmlns="http://www.w3.org/2000/svg">
<rect x="0.990178" y="0.990178" width="87.1357" height="87.1357" rx="43.5678" stroke="#17B8FF" stroke-width="1.98036"/>
<path d="M18.5049 26.525V37.6426C18.5037 40.0359 19.0592 42.3968 20.1275 44.5385C21.1958 46.6802 22.7476 48.5441 24.6602 49.9829C26.5729 51.4217 28.7939 52.3959 31.1479 52.8286C33.5018 53.2612 35.9241 53.1405 38.2233 52.4758C38.8303 53.9932 39.6556 55.3958 40.6585 56.6504L34.0524 63.264C33.7054 63.6114 33.5107 64.0825 33.5111 64.5736C33.5114 65.0646 33.7068 65.5354 34.0543 65.8824C34.4017 66.2293 34.8728 66.4241 35.3638 66.4237C35.8549 66.4234 36.3257 66.228 36.6727 65.8805L43.2751 59.2707C45.7238 61.2287 48.6758 62.4553 51.791 62.8094C54.9063 63.1635 58.0582 62.6306 60.8839 61.2721C63.7096 59.9135 66.0942 57.7846 67.7632 55.1305C69.4321 52.4763 70.3176 49.4047 70.3177 46.2694V34.1674C70.3177 31.6582 68.2822 29.6264 65.7766 29.6264H53.6747C51.5799 29.6264 49.5814 30.0113 47.7384 30.7145C46.4537 28.1556 44.4825 26.0046 42.0453 24.502C39.6081 22.9994 36.8009 22.2045 33.9377 22.2061H22.8238C20.4405 22.2061 18.5049 24.1416 18.5049 26.525ZM45.9101 56.6319L54.9848 47.5536C55.3318 47.2061 55.5265 46.7351 55.5261 46.244C55.5258 45.753 55.3304 45.2822 54.9829 44.9352C54.8109 44.7634 54.6067 44.6272 54.382 44.5343C54.1573 44.4414 53.9165 44.3937 53.6733 44.3938C53.1823 44.3942 52.7115 44.5896 52.3645 44.9371L43.301 54.0117C41.8648 52.0871 40.9923 49.801 40.7809 47.409C40.5695 45.0169 41.0276 42.6132 42.104 40.4666C43.1804 38.32 44.8326 36.5151 46.876 35.2536C48.9193 33.9922 51.2733 33.3239 53.6747 33.3236H65.7803C66.243 33.3236 66.6204 33.7011 66.6204 34.1637V46.2694C66.6206 48.6729 65.9516 51.0291 64.6885 53.074C63.4253 55.1188 61.6177 56.7716 59.4683 57.8473C57.3189 58.923 54.9125 59.379 52.5185 59.1644C50.1245 58.9497 47.8376 58.0728 45.9138 56.6319M33.9414 25.907C36.1247 25.9064 38.2648 26.515 40.121 27.6645C41.9772 28.8139 43.4758 30.4585 44.4483 32.4132C41.8133 34.1661 39.7324 36.6334 38.4491 39.5263L32.7645 33.8491C32.5925 33.6773 32.3882 33.5411 32.1635 33.4482C31.9389 33.3553 31.6981 33.3076 31.4549 33.3078C31.2118 33.3079 30.9711 33.356 30.7465 33.4492C30.5219 33.5424 30.3179 33.6789 30.1461 33.851C29.9743 34.023 29.8381 34.2272 29.7452 34.4519C29.6523 34.6766 29.6046 34.9174 29.6047 35.1606C29.6049 35.4037 29.653 35.6444 29.7462 35.869C29.8394 36.0936 29.9759 36.2976 30.148 36.4694L37.2463 43.5603C36.955 45.3295 36.9512 47.1341 37.2352 48.9044C35.4857 49.4168 33.6409 49.5145 31.8471 49.1896C30.0533 48.8648 28.3598 48.1263 26.9011 47.033C25.4424 45.9396 24.2586 44.5213 23.4436 42.8906C22.6286 41.26 22.2048 39.4618 22.2058 37.6389L22.2021 26.5213C22.2059 26.3583 22.2729 26.2032 22.3889 26.0885C22.5049 25.9739 22.6608 25.9088 22.8238 25.907H33.9414Z" fill="white"/>
</svg>
