<svg width="75" height="75" viewBox="0 0 75 75" fill="none" xmlns="http://www.w3.org/2000/svg">
<rect x="1.42857" y="1.42857" width="72.1429" height="72.1429" rx="36.0714" fill="#100F0E"/>
<rect x="1.42857" y="1.42857" width="72.1429" height="72.1429" rx="36.0714" stroke="#8B5CF6" stroke-width="2.85714"/>
<path d="M22.0497 21.0041C22.8038 20.9707 23.5529 21.1421 24.2173 21.5003C25.2358 22.0592 25.9514 22.9941 26.4136 24.1119L54.2086 24.1119C54.4067 24.1123 54.6022 24.1579 54.7801 24.245C54.958 24.3322 55.1138 24.4587 55.2356 24.6149C55.3574 24.7712 55.442 24.9531 55.4831 25.147C55.5241 25.3408 55.5206 25.5414 55.4726 25.7337L52.861 36.1799C52.798 36.4337 52.6603 36.6627 52.4657 36.8373C52.2711 37.0119 52.0285 37.1241 51.7694 37.1593L32.2401 39.7604L32.2348 39.7656C31.6525 39.8753 31.4253 40.4525 31.5114 41.0923C31.6002 41.7792 31.8849 42.3929 33.316 42.3929H48.9855C49.3318 42.3929 49.6639 42.5304 49.9088 42.7753C50.1537 43.0202 50.2912 43.3523 50.2912 43.6987C50.2912 44.045 50.1537 44.3771 49.9088 44.622C49.6639 44.8669 49.3318 45.0044 48.9855 45.0044H30.7045C30.4209 45.004 30.1452 44.9112 29.9191 44.7402C29.6929 44.5691 29.5286 44.3291 29.4509 44.0564C27.7011 37.9349 25.9436 31.816 24.2016 25.6971C23.9144 24.6603 23.4286 24.0466 22.9533 23.7854C22.4702 23.519 21.8721 23.4564 20.8379 23.9735C20.5306 24.1106 20.1821 24.1238 19.8652 24.0102C19.5484 23.8967 19.2876 23.6651 19.1373 23.3639C18.9871 23.0627 18.9589 22.7152 19.0588 22.3937C19.1586 22.0723 19.3787 21.8018 19.6732 21.6387C20.4619 21.2444 21.2688 21.0302 22.0445 21.0041M47.6797 47.616C48.3723 47.616 49.0366 47.8912 49.5263 48.3809C50.0161 48.8707 50.2912 49.535 50.2912 50.2276C50.2912 50.9202 50.0161 51.5845 49.5263 52.0743C49.0366 52.564 48.3723 52.8392 47.6797 52.8392C46.987 52.8392 46.3228 52.564 45.833 52.0743C45.3433 51.5845 45.0681 50.9202 45.0681 50.2276C45.0681 49.535 45.3433 48.8707 45.833 48.3809C46.3228 47.8912 46.987 47.616 47.6797 47.616ZM32.0102 47.616C32.7029 47.616 33.3671 47.8912 33.8569 48.3809C34.3467 48.8707 34.6218 49.535 34.6218 50.2276C34.6218 50.9202 34.3467 51.5845 33.8569 52.0743C33.3671 52.564 32.7029 52.8392 32.0102 52.8392C31.3176 52.8392 30.6533 52.564 30.1636 52.0743C29.6738 51.5845 29.3987 50.9202 29.3987 50.2276C29.3987 49.535 29.6738 48.8707 30.1636 48.3809C30.6533 47.8912 31.3176 47.616 32.0102 47.616Z" fill="white"/>
</svg>
