<svg width="93" height="93" viewBox="0 0 93 93" fill="none" xmlns="http://www.w3.org/2000/svg">
<rect x="0.85396" y="0.85396" width="90.9983" height="90.9983" rx="45.4992" stroke="#8B5CF6" stroke-width="1.70792"/>
<path d="M29.5156 50.9707H65.2752M65.2752 50.9707C65.2752 44.4148 58.7193 41.4348 58.7193 41.4348C58.7193 39.0508 56.3353 31.8989 47.3954 31.8989C38.4555 31.8989 36.0715 39.0508 36.0715 41.4348C36.0715 41.4348 29.5156 44.4148 29.5156 50.9707L35.1013 71.2344H59.6884L65.2752 50.9707Z" stroke="white" stroke-width="4.76794" stroke-linecap="round" stroke-linejoin="round"/>
<path d="M25.9375 50.9707H68.849" stroke="white" stroke-width="4.76794" stroke-linecap="round"/>
<path d="M52.1609 33.0907C52.1609 31.8262 51.6585 30.6134 50.7644 29.7193C49.8702 28.8251 48.6575 28.3228 47.3929 28.3228C46.1284 28.3228 44.9157 28.8251 44.0215 29.7193C43.1273 30.6134 42.625 31.8262 42.625 33.0907" stroke="white" stroke-width="4.76794"/>
<path d="M47.3906 28.3229L52.1586 23.5549" stroke="white" stroke-width="4.76794" stroke-linecap="round"/>
<path d="M42.625 50.9707V71.2345M52.1609 50.9707V71.2345" stroke="white" stroke-width="4.76794"/>
</svg>
