<svg width="93" height="93" viewBox="0 0 93 93" fill="none" xmlns="http://www.w3.org/2000/svg">
<rect x="0.85396" y="0.85396" width="90.9983" height="90.9983" rx="45.4992" stroke="#8B5CF6" stroke-width="1.70792"/>
<path d="M22.3672 68.8506H72.4306V72.4266H22.3672V68.8506ZM62.5967 38.455H33.0951C32.1467 38.455 31.2371 38.8317 30.5665 39.5024C29.8959 40.173 29.5191 41.0825 29.5191 42.0309V56.3348C29.5219 58.7049 30.4647 60.9771 32.1407 62.6531C33.8166 64.329 36.0889 65.2718 38.459 65.2747H52.7628C55.133 65.2718 57.4052 64.329 59.0811 62.6531C60.7571 60.9771 61.6999 58.7049 61.7027 56.3348V54.5468H62.5967C64.7306 54.5468 66.7771 53.6991 68.286 52.1902C69.7949 50.6813 70.6426 48.6348 70.6426 46.5009C70.6426 44.367 69.7949 42.3205 68.286 40.8116C66.7771 39.3027 64.7306 38.455 62.5967 38.455ZM58.1268 56.3348C58.1253 57.7569 57.5597 59.1204 56.5541 60.1261C55.5485 61.1317 54.185 61.6973 52.7628 61.6987H38.459C37.0368 61.6973 35.6733 61.1317 34.6677 60.1261C33.6621 59.1204 33.0965 57.7569 33.0951 56.3348V42.0309H58.1268V56.3348ZM62.5967 50.9708H61.7027V42.0309H62.5967C63.7822 42.0309 64.9192 42.5019 65.7574 43.3402C66.5957 44.1784 67.0666 45.3154 67.0666 46.5009C67.0666 47.6864 66.5957 48.8233 65.7574 49.6616C64.9192 50.4999 63.7822 50.9708 62.5967 50.9708ZM52.7628 34.879H49.1869V34.618C49.1891 33.9535 49.0052 33.3017 48.656 32.7364C48.3068 32.171 47.8063 31.7148 47.2111 31.4193L42.4104 29.0216C41.2201 28.4306 40.2191 27.5181 39.5207 26.3874C38.8224 25.2568 38.4546 23.9532 38.459 22.6242V20.5752H42.0349V22.6242C42.0329 23.2889 42.2171 23.9408 42.5666 24.5062C42.9161 25.0715 43.417 25.5277 44.0125 25.8229L48.8096 28.2206C50.0002 28.8113 51.0016 29.7237 51.7003 30.8544C52.399 31.9851 52.7671 33.2888 52.7628 34.618V34.879Z" fill="white"/>
</svg>
