<svg width="93" height="93" viewBox="0 0 93 93" fill="none" xmlns="http://www.w3.org/2000/svg">
<rect x="0.85396" y="0.85396" width="90.9983" height="90.9983" rx="45.4992" stroke="#8B5CF6" stroke-width="1.70792"/>
<g clip-path="url(#clip0_225_58)">
<path d="M22.365 62.8905V52.1626L23.9766 51.724C39.31 47.5425 55.4834 47.5425 70.8168 51.724L72.4284 52.1626V62.8905M22.365 62.8905C22.365 62.8905 22.365 70.0424 18.7891 70.0424M22.365 62.8905H72.4284M72.4284 62.8905C72.4284 62.8905 72.4284 70.0424 76.0044 70.0424M27.133 45.0107C27.133 40.269 26.4249 35.5559 25.0303 31.0239L24.749 30.1109V29.5149H70.0444V30.1109L69.7631 31.0239C68.3708 35.5557 67.6621 40.2698 67.6605 45.0107M47.3967 36.6668H34.2849V45.0107M47.3967 36.6668V45.0107M47.3967 36.6668H60.5086V45.0107" stroke="white" stroke-width="2.38397"/>
</g>
<defs>
<clipPath id="clip0_225_58">
<rect width="57.2153" height="57.2153" fill="white" transform="translate(18.7891 18.7871)"/>
</clipPath>
</defs>
</svg>
