<svg width="93" height="93" viewBox="0 0 93 93" fill="none" xmlns="http://www.w3.org/2000/svg">
<rect x="0.85396" y="0.85396" width="90.9983" height="90.9983" rx="45.4992" stroke="#9368F6" stroke-width="1.70792"/>
<path d="M35.0223 68.8509V48.5061C32.8767 47.9499 31.2239 46.9931 30.0637 45.6358C28.9066 44.2785 28.3281 42.6185 28.3281 40.6557V25.9395H30.7121V39.4637H35.0223V25.9395H37.4063V39.4637H41.7165V25.9395H44.1005V40.6557C44.1005 42.6185 43.5204 44.2785 42.3602 45.6358C41.2032 46.9915 39.5519 47.9475 37.4063 48.5037V68.8509H35.0223ZM57.3482 68.8509V47.7027C55.2026 46.9557 53.5505 45.639 52.3919 43.7525C51.2333 41.866 50.6548 39.5789 50.6564 36.8914C50.6564 33.8749 51.4296 31.2954 52.976 29.153C54.5224 27.0107 56.3771 25.9395 58.5402 25.9395C60.7334 25.9395 62.6041 27.013 64.1521 29.1602C65.6985 31.3074 66.4717 33.8892 66.4717 36.9057C66.4717 39.6234 65.8852 41.9232 64.7123 43.8049C63.5378 45.6883 61.8777 46.9875 59.7322 47.7027V68.8509H57.3482Z" fill="white"/>
</svg>
