<svg width="94" height="93" viewBox="0 0 94 93" fill="none" xmlns="http://www.w3.org/2000/svg">
<rect x="0.85396" y="0.85396" width="92.04" height="90.9983" rx="45.4992" stroke="#ffad0a" stroke-width="1.70792"/>
<path d="M42.6306 67.6585C44.6056 67.6585 46.2066 66.0575 46.2066 64.0825C46.2066 62.1076 44.6056 60.5066 42.6306 60.5066C40.6557 60.5066 39.0547 62.1076 39.0547 64.0825C39.0547 66.0575 40.6557 67.6585 42.6306 67.6585Z" stroke="white" stroke-width="2.38397"/>
<path d="M59.3181 67.6585C61.2931 67.6585 62.8941 66.0575 62.8941 64.0825C62.8941 62.1076 61.2931 60.5066 59.3181 60.5066C57.3432 60.5066 55.7422 62.1076 55.7422 64.0825C55.7422 66.0575 57.3432 67.6585 59.3181 67.6585Z" stroke="white" stroke-width="2.38397"/>
<path d="M27.1328 28.323H31.9008L40.2542 54.5467H59.3164" stroke="white" stroke-width="2.38397" stroke-linecap="round" stroke-linejoin="round"/>
<path d="M38.3914 48.5868L33.8047 34.283H63.621C63.81 34.2827 63.9963 34.3274 64.1646 34.4134C64.3329 34.4993 64.4784 34.624 64.589 34.7773C64.6996 34.9305 64.7722 35.1078 64.8008 35.2946C64.8293 35.4814 64.8131 35.6723 64.7534 35.8516L60.7793 47.7715C60.7003 48.0087 60.5487 48.2151 60.3459 48.3614C60.1431 48.5078 59.8994 48.5866 59.6493 48.5868H38.3914Z" stroke="white" stroke-width="2.38397" stroke-linecap="round" stroke-linejoin="round"/>
</svg>
