<svg width="26" height="26" viewBox="0 0 26 26" fill="none" xmlns="http://www.w3.org/2000/svg">
<path d="M20.3858 17.3092C19.7667 16.6896 19.0434 16.184 18.2489 15.8153C19.3693 14.9077 20.084 13.5227 20.084 11.9695C20.084 9.22917 17.7988 6.98102 15.0585 7.02306C12.3602 7.06511 10.1862 9.26379 10.1862 11.9695C10.1862 13.5227 10.9035 14.9077 12.0214 15.8153C11.2267 16.1837 10.5034 16.6894 9.88451 17.3092C8.53413 18.662 7.76744 20.4477 7.71797 22.352C7.71731 22.3784 7.72194 22.4047 7.73159 22.4293C7.74124 22.4538 7.75571 22.4762 7.77414 22.4951C7.79258 22.514 7.81462 22.5291 7.83895 22.5393C7.86329 22.5496 7.88942 22.5548 7.91583 22.5548H9.30083C9.40718 22.5548 9.49621 22.4707 9.49869 22.3644C9.54568 20.9299 10.1269 19.587 11.1483 18.568C11.671 18.0426 12.2927 17.626 12.9775 17.3424C13.6622 17.0588 14.3965 16.9138 15.1376 16.9159C16.6438 16.9159 18.0609 17.5021 19.1269 18.568C20.1459 19.587 20.7271 20.9299 20.7765 22.3644C20.779 22.4707 20.868 22.5548 20.9744 22.5548H22.3594C22.3858 22.5548 22.4119 22.5496 22.4363 22.5393C22.4606 22.5291 22.4826 22.514 22.5011 22.4951C22.5195 22.4762 22.534 22.4538 22.5436 22.4293C22.5533 22.4047 22.5579 22.3784 22.5572 22.352C22.5078 20.4477 21.7411 18.662 20.3858 17.3092ZM15.1376 15.1352C14.2918 15.1352 13.4954 14.8063 12.8994 14.2077C12.6002 13.911 12.3639 13.557 12.2046 13.1669C12.0453 12.7768 11.9661 12.3587 11.9719 11.9373C11.9793 11.1261 12.3033 10.3421 12.8697 9.76091C13.4632 9.1525 14.2571 8.81367 15.1055 8.80377C15.9439 8.79636 16.7576 9.12282 17.3561 9.70897C17.9694 10.31 18.3058 11.1138 18.3058 11.9695C18.3058 12.8153 17.9769 13.6092 17.3783 14.2077C17.0847 14.5028 16.7355 14.7367 16.3509 14.8959C15.9662 15.0551 15.5539 15.1364 15.1376 15.1352ZM8.94221 12.6224C8.91995 12.4072 8.90759 12.1896 8.90759 11.9695C8.90759 11.5762 8.94469 11.1929 9.01394 10.8194C9.03125 10.7304 8.98426 10.6389 8.90264 10.6018C8.56628 10.4509 8.25713 10.2432 7.99003 9.98102C7.67528 9.67585 7.42761 9.30841 7.26281 8.90217C7.09802 8.49592 7.01971 8.05978 7.03289 7.62158C7.05515 6.82768 7.3742 6.07335 7.93067 5.50451C8.54155 4.87879 9.36266 4.53748 10.2357 4.54737C11.0247 4.55479 11.7864 4.859 12.3627 5.39816C12.558 5.58118 12.7262 5.78398 12.8672 6.00162C12.9167 6.07829 13.0131 6.11045 13.0972 6.08077C13.5325 5.9299 13.9925 5.82355 14.4649 5.77409C14.6034 5.75925 14.6825 5.61086 14.6207 5.4872C13.8169 3.89692 12.1747 2.79881 10.2753 2.76913C7.53248 2.72709 5.24723 4.97524 5.24723 7.71309C5.24723 9.26627 5.96199 10.6513 7.08236 11.5589C6.29587 11.9225 5.57122 12.4246 4.94303 13.0528C3.58771 14.4056 2.82101 16.1913 2.77155 18.0981C2.77089 18.1245 2.77552 18.1508 2.78516 18.1753C2.79481 18.1999 2.80928 18.2223 2.82772 18.2412C2.84616 18.2601 2.86819 18.2751 2.89253 18.2854C2.91686 18.2956 2.943 18.3009 2.9694 18.3009H4.35688C4.46322 18.3009 4.55226 18.2168 4.55473 18.1105C4.60172 16.676 5.18293 15.3331 6.20437 14.3141C6.93149 13.587 7.82185 13.0824 8.79382 12.8376C8.89028 12.8129 8.95458 12.7213 8.94221 12.6224Z" fill="#00B1EF"/>
</svg>
