<svg width="26" height="26" viewBox="0 0 26 26" fill="none" xmlns="http://www.w3.org/2000/svg">
<path d="M23.5451 5.18479C23.4345 5.12933 23.3112 5.10404 23.1877 5.11145C23.0642 5.11886 22.9448 5.15872 22.8416 5.227L16.1796 9.68714V5.8109C16.1798 5.6771 16.1419 5.54602 16.0702 5.43303C15.9986 5.32004 15.8962 5.22982 15.7751 5.17296C15.654 5.11609 15.5191 5.09495 15.3864 5.112C15.2537 5.12904 15.1287 5.18358 15.0258 5.26921L9.48233 9.84894H7.03418V3.25019C7.03816 3.08757 6.98565 2.92859 6.88561 2.80033C6.78556 2.67206 6.64415 2.58243 6.48546 2.5467L3.67149 1.91355C3.56767 1.89026 3.45992 1.89081 3.35634 1.91519C3.25276 1.93956 3.15607 1.9871 3.07353 2.05425C2.98907 2.12267 2.92161 2.20973 2.87645 2.30859C2.83129 2.40746 2.80965 2.51545 2.81323 2.62408V9.84894H2.10974C1.92316 9.84894 1.74423 9.92306 1.6123 10.055C1.48037 10.1869 1.40625 10.3659 1.40625 10.5524V21.8083C1.40625 21.9949 1.48037 22.1738 1.6123 22.3057C1.74423 22.4377 1.92316 22.5118 2.10974 22.5118H23.2145C23.4011 22.5118 23.58 22.4377 23.7119 22.3057C23.8439 22.1738 23.918 21.9949 23.918 21.8083V5.8109C23.9189 5.68244 23.8847 5.55618 23.8189 5.4458C23.7532 5.33543 23.6585 5.24516 23.5451 5.18479ZM4.22022 3.51751L5.6272 3.82705V9.84894H4.22022V3.51751ZM22.511 21.1048H2.81323V11.2559H9.72856C9.89293 11.2562 10.0522 11.199 10.1788 11.0941L14.7726 7.29526V11.0097C14.7724 11.1375 14.807 11.2629 14.8728 11.3725C14.9385 11.4822 15.0328 11.5718 15.1456 11.6318C15.2585 11.6918 15.3855 11.72 15.5131 11.7133C15.6408 11.7065 15.7642 11.6652 15.87 11.5936L22.511 7.13346V21.1048Z" fill="#00B1EF"/>
<path d="M4.2207 12.6553H9.84864V14.0623H4.2207V12.6553ZM4.2207 15.4692H9.84864V16.8762H4.2207V15.4692ZM4.2207 18.2832H9.84864V19.6902H4.2207V18.2832ZM13.3661 13.3588H14.7731V15.4692H13.3661V13.3588ZM13.3661 17.5797H14.7731V19.6902H13.3661V17.5797ZM16.1801 13.3588H17.587V15.4692H16.1801V13.3588ZM16.1801 17.5797H17.587V19.6902H16.1801V17.5797ZM18.994 13.3588H20.401V15.4692H18.994V13.3588ZM18.994 17.5797H20.401V19.6902H18.994V17.5797Z" fill="#00B1EF"/>
</svg>
