<svg width="26" height="26" viewBox="0 0 26 26" fill="none" xmlns="http://www.w3.org/2000/svg">
<path d="M22.1583 3.16699V5.27747C22.1583 15.4362 16.4885 20.0508 9.49549 20.0508H5.53096C5.35206 21.0964 5.26625 22.1558 5.27454 23.2165H3.16406C3.16406 21.7782 3.28647 20.4729 3.52917 19.2784C3.28647 17.9129 3.16477 16.0599 3.16406 13.7194C3.16406 7.89129 7.88836 3.16699 13.7164 3.16699C15.8269 3.16699 17.9374 4.22223 22.1583 3.16699ZM13.7164 5.27747C11.4775 5.27747 9.33028 6.16688 7.74711 7.75004C6.16395 9.33321 5.27454 11.4804 5.27454 13.7194C5.27454 14.1014 5.27805 14.4693 5.28509 14.8231C6.60836 12.7359 8.54683 11.0865 11.0826 9.63771L12.1294 11.4696C9.11771 13.1917 7.11909 15.1482 6.0934 17.9403H9.49549C15.8427 17.9403 19.9117 13.7479 20.0447 5.6869C18.5969 5.82725 17.2515 5.73755 15.5916 5.48851C14.3781 5.30596 14.1396 5.27747 13.7164 5.27747Z" fill="#00B1EF"/>
</svg>
